<svg xmlns="http://www.w3.org/2000/svg" xmlns:xlink="http://www.w3.org/1999/xlink" xmlns:lucid="lucid" width="881.82" height="525.6"><g transform="translate(3017.716448124392 181.500000006799)" lucid:page-tab-id="0_0"><path d="M-3500-500h5500v2500h-5500z" fill="#fff"/><path d="M-3016.22-174a6 6 0 0 1 6-6h866.83a6 6 0 0 1 6 6v510.6a6 6 0 0 1-6 6h-866.82a6 6 0 0 1-6-6z" stroke="#5e5e5e" stroke-width="3" fill="#fff"/><path d="M-2981.18 69.5a6 6 0 0 1 6-6h788a6 6 0 0 1 6 6v220.46a6 6 0 0 1-6 6h-788a6 6 0 0 1-6-6z" stroke="#5e5e5e" stroke-width="3" fill="#fff"/><path d="M-2726.8-130.77h300v120h-300z" stroke="#333" stroke-width="2" fill="#fff"/><use xlink:href="#a" transform="matrix(1,0,0,1,-2718.8043988269155,-122.76570978446921) translate(109.55 44.8)"/><use xlink:href="#b" transform="matrix(1,0,0,1,-2718.8043988269155,-122.76570978446921) translate(122.075 66.4)"/><path d="M-2541.18 109.23h300v141h-300z" stroke="#333" stroke-width="2" fill="#fff"/><use xlink:href="#c" transform="matrix(1,0,0,1,-2533.1759014281315,117.23429021553079) translate(68.125 55.3)"/><use xlink:href="#b" transform="matrix(1,0,0,1,-2533.1759014281315,117.23429021553079) translate(122.075 76.9)"/><path d="M-2906.8 109.23h300v141h-300z" stroke="#333" stroke-width="2" fill="#fff"/><use xlink:href="#d" transform="matrix(1,0,0,1,-2898.8043988269155,117.23429021553079) translate(94.1 55.3)"/><use xlink:href="#e" transform="matrix(1,0,0,1,-2898.8043988269155,117.23429021553079) translate(109.6 76.9)"/><path d="M-2576.8-8.77v32a6 6 0 0 1-6 6h-168a6 6 0 0 0-6 6v54.5" stroke="#5e5e5e" stroke-width="2" fill="none"/><path d="M-2575.8-8.74h-2v-1.03h2z" stroke="#5e5e5e" stroke-width=".05" fill="#5e5e5e"/><path d="M-2756.8 105l-4.64-14.27h9.27z" stroke="#5e5e5e" stroke-width="2" fill="#5e5e5e"/><path d="M-2576.8-8.77v32a6 6 0 0 0 6 6h173.62a6 6 0 0 1 6 6v54.5" stroke="#5e5e5e" stroke-width="2" fill="none"/><path d="M-2575.8-8.74h-2v-1.03h2z" stroke="#5e5e5e" stroke-width=".05" fill="#5e5e5e"/><path d="M-2391.18 105l-4.63-14.27h9.26z" stroke="#5e5e5e" stroke-width="2" fill="#5e5e5e"/><defs><path fill="#333" d="M185-189c-5-48-123-54-124 2 14 75 158 14 163 119 3 78-121 87-175 55-17-10-28-26-33-46l33-7c5 56 141 63 141-1 0-78-155-14-162-118-5-82 145-84 179-34 5 7 8 16 11 25" id="f"/><path fill="#333" d="M100-194c62-1 85 37 85 99 1 63-27 99-86 99S16-35 15-95c0-66 28-99 85-99zM99-20c44 1 53-31 53-75 0-43-8-75-51-75s-53 32-53 75 10 74 51 75" id="g"/><path fill="#333" d="M24 0v-261h32V0H24" id="h"/><path fill="#333" d="M84 4C-5 8 30-112 23-190h32v120c0 31 7 50 39 49 72-2 45-101 50-169h31l1 190h-30c-1-10 1-25-2-33-11 22-28 36-60 37" id="i"/><path fill="#333" d="M59-47c-2 24 18 29 38 22v24C64 9 27 4 27-40v-127H5v-23h24l9-43h21v43h35v23H59v120" id="j"/><path fill="#333" d="M24-231v-30h32v30H24zM24 0v-190h32V0H24" id="k"/><path fill="#333" d="M117-194c89-4 53 116 60 194h-32v-121c0-31-8-49-39-48C34-167 62-67 57 0H25l-1-190h30c1 10-1 24 2 32 11-22 29-35 61-36" id="l"/><g id="a"><use transform="matrix(0.05,0,0,0.05,0,0)" xlink:href="#f"/><use transform="matrix(0.05,0,0,0.05,12,0)" xlink:href="#g"/><use transform="matrix(0.05,0,0,0.05,22,0)" xlink:href="#h"/><use transform="matrix(0.05,0,0,0.05,25.950000000000003,0)" xlink:href="#i"/><use transform="matrix(0.05,0,0,0.05,35.95,0)" xlink:href="#j"/><use transform="matrix(0.05,0,0,0.05,40.95,0)" xlink:href="#k"/><use transform="matrix(0.05,0,0,0.05,44.900000000000006,0)" xlink:href="#g"/><use transform="matrix(0.05,0,0,0.05,54.900000000000006,0)" xlink:href="#l"/></g><path fill="#333" d="M87 75C49 33 22-17 22-94c0-76 28-126 65-167h31c-38 41-64 92-64 168S80 34 118 75H87" id="m"/><path fill="#333" d="M33 0v-38h34V0H33" id="n"/><path fill="#333" d="M135-143c-3-34-86-38-87 0 15 53 115 12 119 90S17 21 10-45l28-5c4 36 97 45 98 0-10-56-113-15-118-90-4-57 82-63 122-42 12 7 21 19 24 35" id="o"/><path fill="#333" d="M33-261c38 41 65 92 65 168S71 34 33 75H2C39 34 66-17 66-93S39-220 2-261h31" id="p"/><g id="b"><use transform="matrix(0.05,0,0,0.05,0,0)" xlink:href="#m"/><use transform="matrix(0.05,0,0,0.05,5.95,0)" xlink:href="#n"/><use transform="matrix(0.05,0,0,0.05,10.95,0)" xlink:href="#o"/><use transform="matrix(0.05,0,0,0.05,19.95,0)" xlink:href="#h"/><use transform="matrix(0.05,0,0,0.05,23.9,0)" xlink:href="#l"/><use transform="matrix(0.05,0,0,0.05,33.9,0)" xlink:href="#p"/></g><path fill="#333" d="M212-179c-10-28-35-45-73-45-59 0-87 40-87 99 0 60 29 101 89 101 43 0 62-24 78-52l27 14C228-24 195 4 139 4 59 4 22-46 18-125c-6-104 99-153 187-111 19 9 31 26 39 46" id="q"/><path fill="#333" d="M141-36C126-15 110 5 73 4 37 3 15-17 15-53c-1-64 63-63 125-63 3-35-9-54-41-54-24 1-41 7-42 31l-33-3c5-37 33-52 76-52 45 0 72 20 72 64v82c-1 20 7 32 28 27v20c-31 9-61-2-59-35zM48-53c0 20 12 33 32 33 41-3 63-29 60-74-43 2-92-5-92 41" id="r"/><path fill="#333" d="M96-169c-40 0-48 33-48 73s9 75 48 75c24 0 41-14 43-38l32 2c-6 37-31 61-74 61-59 0-76-41-82-99-10-93 101-131 147-64 4 7 5 14 7 22l-32 3c-4-21-16-35-41-35" id="s"/><path fill="#333" d="M85-194c31 0 48 13 60 33l-1-100h32l1 261h-30c-2-10 0-23-3-31C134-8 116 4 85 4 32 4 16-35 15-94c0-66 23-100 70-100zm9 24c-40 0-46 34-46 75 0 40 6 74 45 74 42 0 51-32 51-76 0-42-9-74-50-73" id="t"/><path fill="#333" d="M114-163C36-179 61-72 57 0H25l-1-190h30c1 12-1 29 2 39 6-27 23-49 58-41v29" id="u"/><path fill="#333" d="M127-220V0H93v-220H8v-28h204v28h-85" id="v"/><path fill="#333" d="M100-194c63 0 86 42 84 106H49c0 40 14 67 53 68 26 1 43-12 49-29l28 8c-11 28-37 45-77 45C44 4 14-33 15-96c1-61 26-98 85-98zm52 81c6-60-76-77-97-28-3 7-6 17-6 28h103" id="w"/><g id="c"><use transform="matrix(0.05,0,0,0.05,0,0)" xlink:href="#q"/><use transform="matrix(0.05,0,0,0.05,12.950000000000001,0)" xlink:href="#r"/><use transform="matrix(0.05,0,0,0.05,22.950000000000003,0)" xlink:href="#h"/><use transform="matrix(0.05,0,0,0.05,26.900000000000002,0)" xlink:href="#s"/><use transform="matrix(0.05,0,0,0.05,35.900000000000006,0)" xlink:href="#i"/><use transform="matrix(0.05,0,0,0.05,45.900000000000006,0)" xlink:href="#h"/><use transform="matrix(0.05,0,0,0.05,49.85000000000001,0)" xlink:href="#r"/><use transform="matrix(0.05,0,0,0.05,59.85,0)" xlink:href="#t"/><use transform="matrix(0.05,0,0,0.05,69.85000000000001,0)" xlink:href="#g"/><use transform="matrix(0.05,0,0,0.05,79.85000000000001,0)" xlink:href="#u"/><use transform="matrix(0.05,0,0,0.05,85.80000000000001,0)" xlink:href="#r"/><use transform="matrix(0.05,0,0,0.05,95.80000000000001,0)" xlink:href="#v"/><use transform="matrix(0.05,0,0,0.05,104.75,0)" xlink:href="#w"/><use transform="matrix(0.05,0,0,0.05,114.75,0)" xlink:href="#o"/><use transform="matrix(0.05,0,0,0.05,123.75,0)" xlink:href="#j"/><use transform="matrix(0.05,0,0,0.05,128.75,0)" xlink:href="#w"/><use transform="matrix(0.05,0,0,0.05,138.75,0)" xlink:href="#o"/></g><g id="d"><use transform="matrix(0.05,0,0,0.05,0,0)" xlink:href="#q"/><use transform="matrix(0.05,0,0,0.05,12.950000000000001,0)" xlink:href="#r"/><use transform="matrix(0.05,0,0,0.05,22.950000000000003,0)" xlink:href="#h"/><use transform="matrix(0.05,0,0,0.05,26.900000000000002,0)" xlink:href="#s"/><use transform="matrix(0.05,0,0,0.05,35.900000000000006,0)" xlink:href="#i"/><use transform="matrix(0.05,0,0,0.05,45.900000000000006,0)" xlink:href="#h"/><use transform="matrix(0.05,0,0,0.05,49.85000000000001,0)" xlink:href="#r"/><use transform="matrix(0.05,0,0,0.05,59.85,0)" xlink:href="#t"/><use transform="matrix(0.05,0,0,0.05,69.85000000000001,0)" xlink:href="#g"/><use transform="matrix(0.05,0,0,0.05,79.85000000000001,0)" xlink:href="#u"/><use transform="matrix(0.05,0,0,0.05,85.80000000000001,0)" xlink:href="#r"/></g><path fill="#333" d="M115-194c55 1 70 41 70 98S169 2 115 4C84 4 66-9 55-30l1 105H24l-1-265h31l2 30c10-21 28-34 59-34zm-8 174c40 0 45-34 45-75s-6-73-45-74c-42 0-51 32-51 76 0 43 10 73 51 73" id="x"/><path fill="#333" d="M24-231v-30h32v30H24zM-9 49c24 4 33-6 33-30v-209h32V24c2 40-23 58-65 49V49" id="y"/><g id="e"><use transform="matrix(0.05,0,0,0.05,0,0)" xlink:href="#m"/><use transform="matrix(0.05,0,0,0.05,5.95,0)" xlink:href="#n"/><use transform="matrix(0.05,0,0,0.05,10.95,0)" xlink:href="#s"/><use transform="matrix(0.05,0,0,0.05,19.95,0)" xlink:href="#o"/><use transform="matrix(0.05,0,0,0.05,28.950000000000003,0)" xlink:href="#x"/><use transform="matrix(0.05,0,0,0.05,38.95,0)" xlink:href="#u"/><use transform="matrix(0.05,0,0,0.05,44.900000000000006,0)" xlink:href="#g"/><use transform="matrix(0.05,0,0,0.05,54.900000000000006,0)" xlink:href="#y"/><use transform="matrix(0.05,0,0,0.05,58.85,0)" xlink:href="#p"/></g></defs></g></svg>